<?xml version="1.0" encoding="UTF-8" standalone="no"?><!DOCTYPE svg PUBLIC "-//W3C//DTD SVG 1.1//EN" "http://www.w3.org/Graphics/SVG/1.1/DTD/svg11.dtd"><svg width="100%" height="100%" viewBox="0 0 4096 1481" version="1.1" xmlns="http://www.w3.org/2000/svg" xmlns:xlink="http://www.w3.org/1999/xlink" xml:space="preserve" xmlns:serif="http://www.serif.com/" style="fill-rule:evenodd;clip-rule:evenodd;stroke-linejoin:round;stroke-miterlimit:2;"><path d="M0,301.959C24.3,326.733 27.576,357.736 22.501,369.828C61.259,377.755 58.761,418.035 56.155,437.794C75.624,455.453 96.583,490.453 115.169,533.82C137.258,490.502 173.334,462.226 227.99,436.151C231.079,433.306 237.582,418.699 238.014,406.814C238.131,387.661 183.665,367.464 204.303,348.834C210.646,346.593 228.459,350.102 235.497,346.272C242.538,342.444 244.166,335.632 259.372,334.901C259.372,334.901 287.08,331.95 297.903,337.914C308.727,343.876 309.754,353.551 309.705,354.925C309.654,356.299 322.054,356.825 324.61,362.438C334.783,386.26 305.898,383.658 304.019,397.337C302.141,411.015 309.859,426.479 320.632,433.815C340.95,444.308 425.856,500.195 426.838,586.919C427.455,597.139 433.128,613.547 441.744,633.08C448.118,622.906 454.541,614.549 460.844,608.452C458.073,591.63 454.831,557.261 487.75,549.418C479.656,531.746 491.442,464.836 583.051,458.73C604.346,462.133 596.94,494.8 601.414,500.976C605.887,507.15 640.692,569.495 610.543,594.159C596.618,606.129 527.063,569.897 517.865,572.796C517.865,572.796 530.56,589.02 518.934,600.265C541.081,598.346 586.913,639.521 599.608,655.745C611.076,670.403 644.372,682.312 682.356,708.053C697.157,696.205 714.877,685.792 735.887,675.769C738.465,673.395 743.891,661.205 744.252,651.286C744.349,635.303 698.897,618.449 716.12,602.901C721.413,601.032 736.278,603.96 742.151,600.764C748.027,597.569 749.386,591.885 762.076,591.275C762.076,591.275 785.198,588.811 794.23,593.788C803.263,598.764 804.12,606.838 804.079,607.985C804.037,609.131 814.385,609.57 816.518,614.254C825.007,634.134 800.902,631.962 799.334,643.378C797.767,654.792 804.207,667.697 813.198,673.819C822.479,678.612 847.912,694.757 869.167,720.262C866.782,670.264 883.527,624.124 916.546,569.907C917.712,565.3 914.833,547.437 907.887,535.908C896.144,517.69 832.042,532.262 840.065,501.839C844.688,495.791 863.737,488.091 868.034,480.107C872.336,472.122 869.662,464.661 883.617,454.558C883.617,454.558 908.042,434.613 921.987,433.566C935.932,432.516 942.892,441.047 943.697,442.379C944.499,443.712 956.573,436.536 962.468,440.272C986.849,456.546 957.872,471.958 964.557,486.081C971.243,500.202 988.125,510.076 1002.87,510.359C1028.62,507.727 1143.65,508.13 1198.25,589.687C1199.14,590.89 1200.18,592.138 1201.36,593.431C1213.84,552.305 1228.42,522.756 1227.24,504.033C1225.72,479.999 1233.75,408.425 1254.59,392.892C1235.7,392.105 1234.18,368.07 1234.18,368.07C1223.89,372.685 1191.3,458.376 1169.83,458.741C1124.34,460.626 1106.29,379.129 1105.4,370.261C1104.51,361.391 1072.66,338.614 1088.61,319.095C1173.37,253.246 1235.65,302.527 1242.32,324.252C1277.16,305.522 1301.03,338.06 1311.68,354.905C1330.81,355.704 1356.42,363.056 1385.14,375.249C1347.24,285.326 1359.28,220.615 1410.55,136.431C1411.71,131.823 1408.83,113.96 1401.89,102.432C1390.14,84.213 1326.04,98.786 1334.07,68.362C1338.69,62.314 1357.74,54.615 1362.03,46.63C1366.34,38.645 1363.66,31.185 1377.62,21.081C1377.62,21.081 1402.04,1.137 1415.99,0.089C1429.93,-0.96 1436.89,7.57 1437.7,8.903C1438.5,10.235 1450.57,3.059 1456.47,6.796C1480.85,23.07 1451.87,38.481 1458.56,52.604C1465.24,66.725 1482.13,76.6 1496.87,76.883C1516.75,74.85 1589.87,74.627 1647.31,112.192C1641.87,85.61 2454.1,85.61 2448.65,112.192C2506.09,74.627 2579.21,74.85 2599.09,76.883C2613.84,76.6 2630.72,66.725 2637.4,52.604C2644.09,38.481 2615.11,23.07 2639.49,6.796C2645.39,3.059 2657.46,10.235 2658.26,8.903C2659.07,7.57 2666.03,-0.96 2679.97,0.089C2693.92,1.137 2718.34,21.081 2718.34,21.081C2732.3,31.185 2729.63,38.645 2733.93,46.63C2738.22,54.615 2757.27,62.314 2761.9,68.362C2769.92,98.786 2705.82,84.213 2694.07,102.432C2687.13,113.96 2684.25,131.823 2685.41,136.431C2736.68,220.615 2748.72,285.326 2710.82,375.249C2739.55,363.056 2765.16,355.704 2784.28,354.905C2794.93,338.06 2818.8,305.522 2853.65,324.252C2860.31,302.527 2922.59,253.246 3007.35,319.095C3023.3,338.614 2991.45,361.391 2990.56,370.261C2989.67,379.129 2971.63,460.626 2926.13,458.741C2904.67,458.376 2872.07,372.685 2861.78,368.07C2861.78,368.07 2860.26,392.105 2841.37,392.892C2862.21,408.425 2870.24,479.999 2868.72,504.033C2867.54,522.756 2882.12,552.305 2894.61,593.431C2895.78,592.138 2896.82,590.89 2897.71,589.687C2952.31,508.13 3067.34,507.727 3093.09,510.359C3107.84,510.076 3124.72,500.202 3131.4,486.081C3138.09,471.958 3109.11,456.546 3133.49,440.272C3139.39,436.536 3151.46,443.712 3152.26,442.379C3153.07,441.047 3160.03,432.516 3173.97,433.566C3187.92,434.613 3212.34,454.558 3212.34,454.558C3226.3,464.661 3223.63,472.122 3227.93,480.107C3232.22,488.091 3251.27,495.791 3255.9,501.839C3263.92,532.262 3199.82,517.69 3188.07,535.908C3181.13,547.437 3178.25,565.3 3179.41,569.907C3212.43,624.124 3229.18,670.264 3226.79,720.262C3248.05,694.757 3273.48,678.612 3282.76,673.819C3291.75,667.697 3298.19,654.792 3296.63,643.378C3295.06,631.962 3270.95,634.134 3279.44,614.254C3281.58,609.57 3291.92,609.131 3291.88,607.985C3291.84,606.838 3292.7,598.764 3301.73,593.788C3310.76,588.811 3333.89,591.275 3333.89,591.275C3346.58,591.885 3347.93,597.569 3353.81,600.764C3359.68,603.96 3374.55,601.032 3379.84,602.901C3397.06,618.449 3351.61,635.303 3351.71,651.286C3352.07,661.205 3357.5,673.395 3360.07,675.769C3381.08,685.792 3398.8,696.205 3413.61,708.053C3451.59,682.312 3484.89,670.403 3496.35,655.745C3509.05,639.521 3554.88,598.346 3577.03,600.265C3565.4,589.02 3578.1,572.796 3578.1,572.796C3568.9,569.897 3499.34,606.129 3485.42,594.159C3455.27,569.495 3490.07,507.15 3494.55,500.976C3499.02,494.8 3491.62,462.133 3512.91,458.73C3604.52,464.836 3616.31,531.746 3608.21,549.418C3641.13,557.261 3637.89,591.63 3635.12,608.452C3641.42,614.549 3647.84,622.906 3654.22,633.08C3662.83,613.547 3668.51,597.139 3669.12,586.919C3670.11,500.195 3755.01,444.308 3775.33,433.815C3786.1,426.479 3793.82,411.015 3791.94,397.337C3790.06,383.658 3761.18,386.26 3771.35,362.438C3773.91,356.825 3786.31,356.299 3786.26,354.925C3786.21,353.551 3787.23,343.876 3798.06,337.914C3808.88,331.95 3836.59,334.901 3836.59,334.901C3851.8,335.632 3853.42,342.444 3860.46,346.272C3867.5,350.102 3885.32,346.593 3891.66,348.834C3912.3,367.464 3857.83,387.661 3857.95,406.814C3858.38,418.699 3864.88,433.306 3867.97,436.151C3922.63,462.226 3958.7,490.502 3980.79,533.82C3999.38,490.453 4020.34,455.453 4039.81,437.794C4037.2,418.035 4034.7,377.755 4073.46,369.828C4068.38,357.73 4071.66,326.701 4096,301.919L4096,1480.17L0,1480.17L0,301.959Z" style="fill:rgb(22,22,22);fill-rule:nonzero;"/></svg>