<?xml version="1.0" encoding="UTF-8" standalone="no"?><!DOCTYPE svg PUBLIC "-//W3C//DTD SVG 1.1//EN" "http://www.w3.org/Graphics/SVG/1.1/DTD/svg11.dtd"><svg width="100%" height="100%" viewBox="0 0 4096 2304" version="1.1" xmlns="http://www.w3.org/2000/svg" xmlns:xlink="http://www.w3.org/1999/xlink" xml:space="preserve" xmlns:serif="http://www.serif.com/" style="fill-rule:evenodd;clip-rule:evenodd;stroke-linecap:round;stroke-linejoin:round;stroke-miterlimit:1.5;"><rect id="_4fullscreen" serif:id="4fullscreen" x="0" y="0" width="4096" height="2304" style="fill:none;"/><path d="M772.043,1178.76L789.446,1162.24L871.014,1182.17L901.782,1166.34L920.481,1174.93L913.102,1154.78L921.651,1145.85L914.647,1119.26L932.168,1109.11L915.113,1093.28L838.338,1014.98L767.489,972.808L745.826,934.195L785.472,912.767L841.28,901.53L816.331,877.388L719.85,794.932L713.71,745.395L753.076,734.772L818.47,738.755L832.092,726.632L810.243,703.194L795.959,684.734L893.662,613.453L891.921,592.407L907.375,581.787L962.009,575.718L973.606,529.443L1002.63,492.561L998.165,464.375L2812.9,873.548L2884.85,914.395L2997.72,991.657L3048.82,1005.98L3108.54,1048.07L3195.93,1076.07L3099.39,1130.23L3038.57,1200.64L3058.48,1244.57L3151.92,1299.75L3123.21,1324.48L3139.07,1344.36L3124.45,1366.87L3122.75,1392.3L3110.01,1412.5L3161.75,1471.81L3202.92,1487.95L3225.95,1542.09L3342.75,1578.12L3407.47,1628.14L3418.81,1661.97L3441.72,1680.76L3405.61,1720.11L3346.48,1735.21L3356.52,1768.74L3382.84,1796.45L3035.3,1717.52L2907.16,1677.55L2885.26,1660.35L2763.29,1653.03L1703,1394.73L1619.59,1392.17L1550.27,1342.6L1433.1,1335.13L1385.11,1336.69L841.631,1201.82L772.043,1178.76Z" style="fill:rgb(8,6,5);fill-opacity:0.25;"/><path d="M769.037,1169.05L786.44,1152.53L868.009,1172.47L898.777,1156.63L917.476,1165.22L910.097,1145.07L918.645,1136.14L911.641,1109.56L929.163,1099.41L912.107,1083.58L835.333,1005.28L764.483,963.101L742.82,924.489L782.466,903.06L838.275,891.824L813.325,867.681L716.844,785.226L710.705,735.689L750.07,725.066L815.465,729.048L829.086,716.926L807.238,693.487L792.954,675.027L890.657,603.746L888.915,582.7L904.369,572.081L959.004,566.012L970.6,519.737L999.627,482.854L995.16,454.668L2809.89,863.842L2881.84,904.689L2994.72,981.95L3045.81,996.27L3105.54,1038.37L3192.92,1066.36L3096.39,1120.52L3035.56,1190.94L3055.48,1234.86L3148.91,1290.04L3120.2,1314.77L3136.07,1334.65L3121.44,1357.17L3119.74,1382.6L3107,1402.8L3158.75,1462.1L3199.91,1478.24L3222.94,1532.38L3339.75,1568.42L3404.47,1618.44L3415.81,1652.26L3438.71,1671.05L3402.6,1710.4L3343.47,1725.5L3353.52,1759.03L3379.83,1786.74L3032.3,1707.81L2904.16,1667.84L2882.25,1650.64L2760.28,1643.32L1699.99,1385.02L1616.58,1382.46L1547.27,1332.89L1430.1,1325.42L1382.11,1326.99L838.625,1192.11L769.037,1169.05Z" style="fill:rgb(36,100,199);stroke:black;stroke-width:3px;"/><path d="M1125.16,920.522C1117.15,972.427 1104.98,1023.12 1093.47,1074.32" style="fill:none;stroke:white;stroke-width:7.28px;stroke-linecap:square;stroke-linejoin:bevel;"/><path d="M1113.7,996.56C1143.3,1005.33 1172.8,1014.54 1202.5,1022.94" style="fill:none;stroke:white;stroke-width:7.28px;stroke-linecap:square;stroke-linejoin:bevel;"/><path d="M1228.1,938.682C1214.29,993.039 1194.16,1045.29 1184.84,1100.83" style="fill:none;stroke:white;stroke-width:7.28px;stroke-linecap:square;stroke-linejoin:bevel;"/><path d="M1236.9,1117.05C1244.53,1090.45 1252.92,1063.98 1257.71,1036.67C1262.66,1008.45 1264.79,978.31 1272.86,950.788C1272.96,950.447 1278.63,951.272 1279.19,951.345C1286.58,952.299 1293.71,954.567 1300.7,957.048C1330.68,967.674 1360.07,978.953 1390.91,986.948" style="fill:none;stroke:white;stroke-width:7.28px;stroke-linecap:square;stroke-linejoin:bevel;"/><path d="M1261,1032.19C1286.68,1040.35 1312.38,1048.36 1338.27,1055.86" style="fill:none;stroke:white;stroke-width:7.28px;stroke-linecap:square;stroke-linejoin:bevel;"/><path d="M1236.89,1117.05C1274.56,1125.05 1313.45,1138.76 1350.35,1149.78" style="fill:none;stroke:white;stroke-width:7.28px;stroke-linecap:square;stroke-linejoin:bevel;"/><path d="M947.964,753.795C972.45,712.744 994.803,670.315 1019.86,629.622C1026.76,618.411 1034.22,607.546 1041.17,596.365C1041.41,595.976 1042.57,593.582 1042.94,593.527C1043.93,593.378 1048.08,608.474 1048.46,609.981C1053.05,628.027 1053.78,646.838 1056.9,665.153C1057.47,668.537 1060.73,684.528 1060.95,684.461C1083.98,677.471 1102.22,654.613 1118.11,637.945C1123.63,632.146 1129.31,626.481 1135.1,620.946C1136.87,619.251 1138.65,617.555 1140.47,615.915C1141.52,614.973 1143.63,611.727 1143.66,613.136C1144.99,673.448 1108.6,729.682 1111.99,790.547" style="fill:none;stroke:white;stroke-width:7.28px;stroke-linecap:square;stroke-linejoin:bevel;"/><path d="M1262.21,638.902C1237.59,645.36 1211.25,655.566 1195.99,677.054C1150.48,741.183 1206.2,820.021 1276.97,825.458C1339.13,830.234 1367.85,761.687 1349,710.845C1335.53,674.532 1299.41,653.843 1265.43,639.277" style="fill:none;stroke:white;stroke-width:7.28px;stroke-linecap:square;stroke-linejoin:bevel;"/><path d="M1386.92,861.15C1386.81,855.751 1385.34,821.819 1387.93,818.566C1389.63,816.429 1431.94,822.359 1437.12,823.432C1486.66,833.698 1534,851.888 1583.78,861.292C1585.52,861.62 1580.94,863.407 1579.53,864.473C1576.54,866.729 1573.52,868.948 1570.53,871.221C1561.92,877.787 1553.06,884.379 1545.78,892.448" style="fill:none;stroke:white;stroke-width:7.28px;stroke-linecap:square;stroke-linejoin:bevel;"/><path d="M1417.54,820.574C1429.96,794.337 1434.56,774.992 1437.41,746.152C1438.65,733.545 1435.64,706.67 1439.67,696.399C1441.1,692.736 1466.22,691.902 1469.94,692.135C1495.28,693.721 1518.81,704.35 1542.28,713.083C1547.79,715.132 1562.45,717.363 1566.15,721.505C1567.04,722.488 1561.68,749.537 1560.86,753.207C1553.72,784.857 1546.2,816.411 1539.26,848.108" style="fill:none;stroke:white;stroke-width:7.28px;stroke-linecap:square;stroke-linejoin:bevel;"/><path d="M1627.36,742.464C1649.35,778.227 1668.34,815.564 1688.22,852.505" style="fill:none;stroke:white;stroke-width:7.28px;stroke-linecap:square;stroke-linejoin:bevel;"/><path d="M1742.08,777.662C1698.37,837.799 1653.69,898.543 1617.13,963.385" style="fill:none;stroke:white;stroke-width:7.28px;stroke-linecap:square;stroke-linejoin:bevel;"/><path d="M1700.93,956.007C1727.71,923.808 1753.19,890.6 1777.35,856.387C1785.41,844.987 1792.5,833.174 1799.23,820.963C1801.45,816.938 1803.61,812.866 1805.69,808.77C1806.82,806.563 1807.32,800.36 1809.04,802.136C1812.87,806.074 1813.61,841.72 1814.27,851.331C1817.41,897.678 1814.38,944.893 1821.97,990.86" style="fill:none;stroke:white;stroke-width:7.28px;stroke-linecap:square;stroke-linejoin:bevel;"/><path d="M1889.67,805.786C1887.27,849.128 1883.83,892.506 1878.72,935.625C1876.55,953.871 1868.55,975.954 1869.71,994.106C1869.73,994.407 1881.92,999.384 1892.75,1003.71C1895.65,1004.88 1898.58,1005.99 1901.52,1007.08C1947.88,1024.13 2004.03,984.326 1957.04,940.955C1949.21,933.728 1939.77,928.413 1929.8,924.761C1915.83,919.646 1901.03,916.92 1886.19,916.013" style="fill:none;stroke:white;stroke-width:7.28px;stroke-linecap:square;stroke-linejoin:bevel;"/><path d="M1479.8,1189.34C1496.06,1168.91 1509.49,1146.53 1525.53,1126C1540.28,1107.12 1557.27,1090.24 1571.72,1071.12C1579.91,1060.3 1586.53,1048.47 1593.63,1036.93C1595.59,1033.75 1599.06,1025.69 1602.36,1023.92C1602.86,1023.65 1602.65,1025 1602.78,1025.55C1603.08,1026.84 1603.35,1028.13 1603.58,1029.43C1604.24,1033.19 1604.63,1037.01 1604.84,1040.82C1605.84,1059.08 1602.64,1076.99 1600.83,1095.09C1598.78,1115.44 1597.57,1136.52 1599,1156.96C1600.69,1181.07 1604.58,1205.04 1606.67,1229.14" style="fill:none;stroke:white;stroke-width:7.28px;stroke-linecap:square;stroke-linejoin:bevel;"/><path d="M1492.26,1133.3C1536.69,1140.15 1579.43,1155.54 1623.47,1164.65" style="fill:none;stroke:white;stroke-width:7.28px;stroke-linecap:square;stroke-linejoin:bevel;"/><path d="M1669.85,1037.6C1662.74,1074.54 1658.77,1112.04 1652.62,1149.14C1647.17,1181.96 1639.39,1214.56 1636.34,1247.72" style="fill:none;stroke:white;stroke-width:7.28px;stroke-linecap:square;stroke-linejoin:bevel;"/><path d="M1767.86,1058.43C1743.07,1082.27 1717.53,1105.34 1692.35,1128.76C1682.86,1137.6 1673.2,1146.27 1663.79,1155.2C1662.42,1156.5 1649.63,1166.12 1649.63,1166.12" style="fill:none;stroke:white;stroke-width:7.28px;stroke-linecap:square;stroke-linejoin:bevel;"/><path d="M1682.08,1138.24C1682.08,1138.24 1710.93,1202.85 1725.51,1235.31C1735.13,1256.73 1743.34,1277.96 1755.84,1297.89" style="fill:none;stroke:white;stroke-width:7.28px;stroke-linecap:square;stroke-linejoin:bevel;"/><path d="M1838,1087.55C1831.91,1113.64 1824.45,1139.47 1819.01,1165.7C1811.71,1200.85 1807.67,1236.6 1801.91,1271.99" style="fill:none;stroke:white;stroke-width:7.28px;stroke-linecap:square;stroke-linejoin:bevel;"/><path d="M1792.45,1065.76C1824.15,1075.14 1856.53,1081.63 1888.88,1088.28" style="fill:none;stroke:white;stroke-width:7.28px;stroke-linecap:square;stroke-linejoin:bevel;"/><path d="M1935.25,1100.57C1918.25,1154.3 1903.57,1206.77 1894.94,1262.51C1893.04,1274.75 1891.04,1287.01 1888.34,1299.11C1887.68,1302.01 1883.79,1310.39 1884.57,1313.12C1885.05,1314.84 1887.5,1311.1 1888.92,1310.04C1891.11,1308.4 1893.21,1306.68 1895.26,1304.88C1906.12,1295.29 1915.41,1283.66 1924.19,1272.19C1948.07,1240.97 1970.31,1208.3 1988.51,1173.43C1996.97,1157.22 2001.09,1136.95 2010.96,1121.79C2011.01,1121.71 2010.94,1121.99 2010.93,1122.08C2010.66,1124.58 2010.32,1127.05 2009.97,1129.54C2009.23,1134.83 2008.34,1140.09 2007.4,1145.34C2004.7,1160.34 2001.78,1175.27 1998.56,1190.16C1988.8,1235.25 1970.86,1279.14 1963.43,1324.63" style="fill:none;stroke:white;stroke-width:7.28px;stroke-linecap:square;stroke-linejoin:bevel;"/><path d="M2041.27,1130.89C2041.63,1199.97 2027.39,1268.64 2013.69,1336.13" style="fill:none;stroke:white;stroke-width:7.28px;stroke-linecap:square;stroke-linejoin:bevel;"/><path d="M2040.62,1129.89C2057.64,1128.76 2075,1130.56 2089.3,1140.73C2113.89,1158.2 2113.43,1196.05 2098.33,1219.35C2084.06,1241.37 2057.89,1249.62 2033.27,1253.32" style="fill:none;stroke:white;stroke-width:7.28px;stroke-linecap:square;stroke-linejoin:bevel;"/><path d="M2090.02,1231.23C2099.54,1234.53 2108.51,1238.83 2116.7,1244.73C2143.78,1264.23 2135.18,1297.84 2116.72,1320.37C2092.58,1349.85 2046.29,1364.74 2011.11,1344.99" style="fill:none;stroke:white;stroke-width:7.28px;stroke-linecap:square;stroke-linejoin:bevel;"/><path d="M2194.88,1165.27C2186.06,1216.41 2175.61,1267.32 2164.46,1317.99C2160.45,1336.22 2148.23,1373.05 2148.29,1389.83C2148.3,1390.3 2148.97,1389.15 2149.31,1388.82C2151.09,1387.06 2152.87,1385.29 2154.64,1383.52C2158.67,1379.47 2162.74,1375.46 2166.73,1371.38C2178.99,1358.82 2190.52,1345.3 2201.45,1331.59C2224.8,1302.29 2246.93,1271.12 2263.36,1237.36C2268.86,1226.08 2273.6,1214.46 2278.58,1202.95C2279.73,1200.3 2282.11,1191.46 2284.58,1189.93C2284.72,1189.85 2284.61,1190.26 2284.62,1190.42C2284.82,1193.42 2284.96,1196.41 2285.02,1199.41C2285.13,1204.92 2284.97,1210.4 2284.58,1215.89C2283.36,1232.87 2279.11,1249.83 2274.61,1266.21C2261.06,1315.53 2242.71,1363.54 2233.41,1413.99" style="fill:none;stroke:white;stroke-width:7.28px;stroke-linecap:square;stroke-linejoin:bevel;"/><path d="M2325.8,1196.55C2319.94,1235.12 2315.19,1273.82 2307.97,1312.17C2300.88,1349.87 2291.42,1387.15 2284.6,1424.87" style="fill:none;stroke:white;stroke-width:7.28px;stroke-linecap:square;stroke-linejoin:bevel;"/><path d="M2321.96,1198.33C2345.06,1197.7 2370.92,1207.03 2385.28,1226.07C2411.71,1261.12 2393.98,1297.44 2353.57,1305.48C2340.24,1308.13 2326.41,1307.57 2313.09,1305.12" style="fill:none;stroke:white;stroke-width:7.28px;stroke-linecap:square;stroke-linejoin:bevel;"/><path d="M2490.17,1233.22C2419.68,1231.67 2378.35,1303.6 2389.95,1367.39C2394.79,1394 2407.45,1423.64 2434.3,1434.63C2483,1454.55 2532.94,1402.54 2543.24,1359.54C2554.19,1313.87 2527.14,1261.86 2490.31,1234.69" style="fill:none;stroke:white;stroke-width:7.28px;stroke-linecap:square;stroke-linejoin:bevel;"/><path d="M2608.79,1265.35C2599.96,1343.06 2588.07,1420.23 2578.26,1497.8" style="fill:none;stroke:white;stroke-width:7.28px;stroke-linecap:square;stroke-linejoin:bevel;"/><path d="M2606.6,1267.48C2648.65,1257.39 2700.97,1265.77 2695.7,1321.32C2694.95,1329.27 2692.82,1337.07 2688.87,1344.04C2670.46,1376.52 2632.78,1386.81 2598.03,1385.86" style="fill:none;stroke:white;stroke-width:7.28px;stroke-linecap:square;stroke-linejoin:bevel;"/><path d="M2674.02,1361.41C2723.9,1391.73 2716.45,1458.68 2671.02,1490.09C2644.23,1508.62 2606.33,1506.84 2575.55,1502.6" style="fill:none;stroke:white;stroke-width:7.28px;stroke-linecap:square;stroke-linejoin:bevel;"/><path d="M2709.53,1528.14C2742.97,1473.15 2775.02,1417.17 2805.93,1360.71C2813.09,1347.63 2820.43,1334.63 2827.34,1321.42C2827.94,1320.27 2832.81,1309.03 2833.77,1309.04C2834.82,1309.04 2835.98,1318.17 2836.9,1328.74C2838.78,1350.16 2837.25,1371.95 2836.96,1393.42C2836.22,1446.59 2841.8,1500.72 2853.84,1552.52" style="fill:none;stroke:white;stroke-width:7.28px;stroke-linecap:square;stroke-linejoin:bevel;"/><path d="M2739.82,1438.55C2785.32,1445.45 2830.04,1456.42 2875.25,1464.91" style="fill:none;stroke:white;stroke-width:7.28px;stroke-linecap:square;stroke-linejoin:bevel;"/><path d="M2944.91,1332.47C2937.52,1411.52 2924.6,1489.8 2915.64,1568.69" style="fill:none;stroke:white;stroke-width:7.28px;stroke-linecap:square;stroke-linejoin:bevel;"/><path d="M2932.15,1441.36C2960.21,1447.9 2987.31,1458.23 3015.61,1463.91" style="fill:none;stroke:white;stroke-width:7.28px;stroke-linecap:square;stroke-linejoin:bevel;"/><path d="M3035.84,1348.33C3032.12,1399.88 3023.36,1451.18 3012.39,1501.67C3006.34,1529.55 2998.93,1557.41 2996.13,1585.86" style="fill:none;stroke:white;stroke-width:7.28px;stroke-linecap:square;stroke-linejoin:bevel;"/></svg>